<?xml version="1.0" standalone="no"?>
<!DOCTYPE svg PUBLIC "-//W3C//DTD SVG 20010904//EN"
 "https://www.w3.org/TR/2001/REC-SVG-20010904/DTD/svg10.dtd">
<svg version="1.0" xmlns="https://www.w3.org/2000/svg"
 width="1280.000000pt" height="640.000000pt" viewBox="0 0 1280.000000 640.000000"
 preserveAspectRatio="xMidYMid meet">
<metadata>
Created by potrace 1.15, written by Peter Selinger 2001-2017
</metadata>
<g transform="translate(0.000000,640.000000) scale(0.100000,-0.100000)"
fill="#000000" stroke="none">
<path d="M5875 5835 c-203 -45 -577 -128 -830 -183 -253 -56 -687 -151 -965
-213 -278 -61 -527 -115 -555 -119 -27 -5 -178 -38 -335 -74 -157 -35 -481
-107 -720 -160 -239 -52 -640 -140 -890 -195 -250 -55 -682 -150 -960 -210
-600 -132 -619 -137 -600 -144 8 -3 445 -157 970 -343 525 -185 1025 -361
1110 -391 85 -30 169 -60 185 -65 17 -6 31 -12 33 -13 2 -2 -4 -27 -14 -57
-22 -70 -28 -341 -17 -703 11 -308 9 -352 -16 -360 -26 -8 -101 -86 -122 -127
-61 -118 -31 -277 69 -370 l43 -40 44 -255 c24 -140 45 -256 47 -259 5 -4 380
46 386 51 2 2 -16 120 -39 262 l-43 259 22 32 c62 87 72 224 22 322 -24 48
-93 114 -141 136 -33 14 -39 22 -35 38 3 12 -1 194 -10 405 -13 294 -14 406
-6 479 6 52 15 99 19 103 4 4 265 -83 579 -194 l571 -201 71 -661 c39 -363 74
-706 77 -761 13 -261 142 -557 324 -748 111 -115 196 -166 384 -227 1081 -352
2094 -449 3127 -299 791 115 1430 326 1740 574 194 155 231 235 264 574 10
106 10 155 0 245 -104 944 -155 1450 -147 1457 4 5 161 67 348 138 547 209
893 341 1000 382 55 21 314 120 575 219 261 100 672 257 912 349 241 91 432
169 425 173 -6 3 -39 11 -72 17 -67 13 -439 84 -895 172 -168 32 -422 82 -565
109 -143 28 -469 91 -725 140 -256 49 -771 149 -1145 221 -374 72 -887 171
-1140 220 -253 49 -766 148 -1140 220 -374 72 -712 137 -752 145 -40 8 -78 15
-85 14 -7 -1 -179 -38 -383 -84z"/>
</g>
</svg>
